<?xml version="1.0" encoding="UTF-8"?>
<svg version="1.1" xmlns="http://www.w3.org/2000/svg" width="196" height="196">
<path d="M0 0 C64.68 0 129.36 0 196 0 C196 64.68 196 129.36 196 196 C131.32 196 66.64 196 0 196 C0 131.32 0 66.64 0 0 Z " fill="#F4F5F3" transform="translate(0,0)"/>
<path d="M0 0 C0.10194194 10.72655709 0.07419152 21.31563078 -1 32 C-3.71441522 30.97425563 -5.83947061 30.12747922 -8.125 28.3125 C-8.74375 27.879375 -9.3625 27.44625 -10 27 C-14.06213321 28.3540444 -14.76317511 30.36123607 -17.0625 33.9375 C-25.69466983 46.80077851 -36.48660031 56.49962486 -52 60 C-55.10993287 60.2885973 -58.19054621 60.33367212 -61.3125 60.3125 C-62.15192139 60.30831055 -62.99134277 60.30412109 -63.85620117 60.29980469 C-72.7859541 60.13708359 -79.83804614 58.46570163 -87 53 C-91.80312847 55.30981908 -95.97410581 57.47846932 -99 62 C-100.26650969 67.2181276 -100.10248707 72.66426688 -100 78 C-96.04 78 -92.08 78 -88 78 C-88 71.73 -88 65.46 -88 59 C-83 60 -83 60 -75 64 C-75 72.91 -75 81.82 -75 91 C-87.54 91 -100.08 91 -113 91 C-114.76872295 58.40496277 -114.76872295 58.40496277 -110.1640625 51.87109375 C-107.35878348 48.82868341 -104.2025608 46.40346 -100.73535156 44.15771484 C-98.35774105 42.57152617 -96.40866348 40.62386695 -94.375 38.625 C-91.49697191 35.98138144 -91.2568074 36 -87 36 C-84.921875 37.42578125 -84.921875 37.42578125 -82.75 39.3125 C-73.77547892 46.47471876 -65.2067437 46.99540937 -54 46 C-50.31738713 45.14458992 -47.27193862 43.87899374 -44 42 C-43.3296875 41.62230469 -42.659375 41.24460938 -41.96875 40.85546875 C-35.16599903 36.38778905 -30.71767854 29.48576055 -26 23 C-25.40832031 22.24976562 -24.81664062 21.49953125 -24.20703125 20.7265625 C-22.80901185 19.07791367 -22.80901185 19.07791367 -23 17 C-24.78723941 15.41544134 -24.78723941 15.41544134 -27 13.875 C-27.7425 13.33617188 -28.485 12.79734375 -29.25 12.2421875 C-29.8275 11.83226563 -30.405 11.42234375 -31 11 C-30 9 -30 9 -27.45556641 7.94677734 C-26.34874512 7.5802002 -25.24192383 7.21362305 -24.1015625 6.8359375 C-22.90015625 6.43632813 -21.69875 6.03671875 -20.4609375 5.625 C-19.83155273 5.42003906 -19.20216797 5.21507813 -18.55371094 5.00390625 C-16.63684517 4.37886242 -14.72453636 3.74120765 -12.8125 3.1015625 C-3.40711242 0 -3.40711242 0 0 0 Z " fill="#0D6F5B" transform="translate(163,68)"/>
<path d="M0 0 C9.57 -0.04125 19.14 -0.0825 29 -0.125 C33.51107422 -0.15231201 33.51107422 -0.15231201 38.11328125 -0.18017578 C40.51301902 -0.18602032 42.91275878 -0.19111597 45.3125 -0.1953125 C46.54548828 -0.20554443 47.77847656 -0.21577637 49.04882812 -0.22631836 C65.24093318 -0.22958817 76.70669521 5.2740052 88.40625 16.21875 C92.83166136 20.96407062 96.82883101 26.14869776 97.125 32.8125 C97.08375 33.534375 97.0425 34.25625 97 35 C95.56445975 35.50559908 94.1264798 36.0042749 92.6875 36.5 C91.88699219 36.7784375 91.08648437 37.056875 90.26171875 37.34375 C88 38 88 38 85 38 C84.69707031 37.33613281 84.39414063 36.67226562 84.08203125 35.98828125 C81.62682427 30.81346038 79.45941321 26.73346223 75 23 C74.41347656 22.49726562 73.82695313 21.99453125 73.22265625 21.4765625 C65.2851058 15.03221461 57.33631666 13.55681545 47.27734375 13.48828125 C46.29125626 13.47033005 45.30516876 13.45237885 44.28919983 13.43388367 C41.1720087 13.38015472 38.05496736 13.3460056 34.9375 13.3125 C32.8105262 13.27929387 30.68357207 13.24480121 28.55664062 13.20898438 C23.3712025 13.12444998 18.18580591 13.05746133 13 13 C13.02664734 13.77737015 13.05329468 14.5547403 13.08074951 15.35566711 C13.32239129 22.72469923 13.50446686 30.09178139 13.62174606 37.46375751 C13.6840759 41.25304513 13.76840596 45.03902989 13.90527344 48.82641602 C14.03682624 52.49016725 14.10763475 56.15076948 14.13852692 59.81670189 C14.16050115 61.20644908 14.20341951 62.59604613 14.26876068 63.98443031 C14.55138897 70.24568233 14.61866335 75.55995085 10.28381348 80.38143921 C2.48999701 88 2.48999701 88 0 88 C0 58.96 0 29.92 0 0 Z " fill="#0A375B" transform="translate(50,30)"/>
<path d="M0 0 C5.6071901 4.89516596 9.46896381 10.45337555 10.34765625 17.9765625 C10.70265773 25.75018455 9.65601386 31.67342562 5 38 C-0.49785116 44.01327471 -5.28911982 47.50766379 -13.55078125 48.37109375 C-21.52163098 48.51180449 -27.80047863 48.39371356 -34 43 C-36.32621974 40.4991854 -38.19460601 37.8932596 -40 35 C-40.61875 34.113125 -41.2375 33.22625 -41.875 32.3125 C-44.44781872 24.73697821 -43.89432901 15.42458311 -41 8 C-30.41428637 -7.16633905 -15.19789376 -9.95578298 0 0 Z " fill="#C0A264" transform="translate(118,58)"/>
<path d="M0 0 C5 1 5 1 13 5 C13 13.91 13 22.82 13 32 C0.79 32 -11.42 32 -24 32 C-24 23.09 -24 14.18 -24 5 C-18.555 4.505 -18.555 4.505 -13 4 C-13 8.95 -13 13.9 -13 19 C-8.71 19 -4.42 19 0 19 C0 12.73 0 6.46 0 0 Z " fill="#07395C" transform="translate(75,127)"/>
<path d="M0 0 C3.18741239 1.23923914 6.26436318 2.57509992 9.3125 4.125 C10.00988281 4.47820312 10.70726563 4.83140625 11.42578125 5.1953125 C12.20501953 5.59363281 12.20501953 5.59363281 13 6 C13 7.65 13 9.3 13 11 C8.41039525 10.30460534 5.54912967 8.949627 1 7 C1 13.27 1 19.54 1 26 C-2.96 26 -6.92 26 -11 26 C-12.64061341 12.64308682 -12.64061341 12.64308682 -9.92041016 8.26074219 C-7.02482296 4.98423817 -3.61971212 2.44448091 0 0 Z " fill="#E5F0F0" transform="translate(74,120)"/>
<path d="M0 0 C4.80392244 3.07796228 7.87604331 6.3578211 9.56640625 11.859375 C10.93021676 18.59242148 10.33958767 23.89661563 7 30 C3.60346107 34.90611179 0.70505552 37.19840352 -5 39 C-8.4375 39.1875 -8.4375 39.1875 -11 39 C-11 38.34 -11 37.68 -11 37 C-10.33613281 36.78085938 -9.67226562 36.56171875 -8.98828125 36.3359375 C-1.31299848 33.57955858 1.51112976 30.73330536 6 24 C6.87913821 18.10863227 5.90902998 13.21619168 3 8 C-0.27535558 4.01645943 -2.90677746 1.96098538 -8 1 C-13.2018316 0.7760801 -17.65731641 1.23740779 -21.9375 4.375 C-26.06695585 8.34862733 -26.97882385 13.53427625 -28 19 C-28.99 19 -29.98 19 -31 19 C-31.60928197 14.82206649 -31.87555565 11.40378344 -29.58203125 7.7265625 C-21.2441572 -1.83799238 -12.0257347 -6.26094243 0 0 Z " fill="#A18343" transform="translate(112,61)"/>
<path d="M0 0 C18.48 0 36.96 0 56 0 C56 0.33 56 0.66 56 1 C55.44147339 1.01030746 54.88294678 1.02061493 54.30749512 1.03123474 C48.46693516 1.13985337 42.62651238 1.25440226 36.78613281 1.37231445 C34.60972987 1.41548678 32.4332969 1.45717346 30.25683594 1.49731445 C27.11904881 1.5554482 23.98141033 1.61901603 20.84375 1.68359375 C19.39639465 1.70866249 19.39639465 1.70866249 17.9197998 1.73423767 C16.99944946 1.75418289 16.07909912 1.77412811 15.13085938 1.79467773 C14.33143921 1.81022202 13.53201904 1.8257663 12.70837402 1.84178162 C9.12420851 2.05116218 5.56255157 2.55468105 2 3 C2 29.4 2 55.8 2 83 C2.66 83 3.32 83 4 83 C2.25 86.875 2.25 86.875 0 88 C0 58.96 0 29.92 0 0 Z " fill="#1C3D57" transform="translate(50,30)"/>
<path d="M0 0 C-0.87151615 1.04458319 -1.74746967 2.08546407 -2.625 3.125 C-3.11226562 3.70507812 -3.59953125 4.28515625 -4.1015625 4.8828125 C-6 7 -6 7 -7.46960449 8.23718262 C-10.7007809 11.05388423 -11.89173606 12.46743444 -12.77294922 16.80224609 C-12.81340804 18.20876789 -12.82263942 19.61644845 -12.8046875 21.0234375 C-12.81839386 21.76961334 -12.83210022 22.51578918 -12.84622192 23.28457642 C-12.8833686 25.64867291 -12.87981831 28.01065434 -12.875 30.375 C-12.89313789 31.98570969 -12.91394403 33.59639168 -12.9375 35.20703125 C-12.98920575 39.13837278 -13.00444112 43.06833723 -13 47 C-13.33 47 -13.66 47 -14 47 C-14.07422923 41.94632167 -14.12863915 36.8929616 -14.16479492 31.83886719 C-14.17986933 30.12006095 -14.20033229 28.40129309 -14.22631836 26.68261719 C-14.26276165 24.21019003 -14.27973958 21.738272 -14.29296875 19.265625 C-14.30845261 18.49881409 -14.32393646 17.73200317 -14.33988953 16.94195557 C-14.34126724 12.56156215 -13.90566027 10.27670768 -11 7 C-11 6.01 -11 5.02 -11 4 C-7.85045474 -0.40936336 -5.20933654 -0.4007182 0 0 Z " fill="#C8DFE0" transform="translate(63,112)"/>
<path d="M0 0 C0.66 0 1.32 0 2 0 C1.67 7.59 1.34 15.18 1 23 C5.97911637 24.65970546 8.87798572 25.27994652 13.9296875 25.4140625 C15.21875 25.45273438 16.5078125 25.49140625 17.8359375 25.53125 C19.18228707 25.56269758 20.52864132 25.59394511 21.875 25.625 C23.24481514 25.66323041 24.61460755 25.70228501 25.984375 25.7421875 C29.32278263 25.83622715 32.66118814 25.92188057 36 26 C36 26.33 36 26.66 36 27 C24.12 27 12.24 27 0 27 C0 18.09 0 9.18 0 0 Z " fill="#082E48" transform="translate(51,132)"/>
<path d="M0 0 C0.66 0.66 1.32 1.32 2 2 C1.20335938 2.03738281 0.40671875 2.07476562 -0.4140625 2.11328125 C-11.16975196 2.78060505 -16.76569784 6.32106602 -25 13 C-25.66 12.67 -26.32 12.34 -27 12 C-20.13346292 3.11389318 -11.49239254 -1.59161445 0 0 Z " fill="#BFA97B" transform="translate(106,52)"/>
<path d="M0 0 C0.66 0 1.32 0 2 0 C2 8.91 2 17.82 2 27 C-4.93 26.505 -4.93 26.505 -12 26 C-12 25.67 -12 25.34 -12 25 C-10.93458984 24.80083984 -10.93458984 24.80083984 -9.84765625 24.59765625 C-8.92855469 24.42105469 -8.00945312 24.24445313 -7.0625 24.0625 C-6.14597656 23.88847656 -5.22945313 23.71445313 -4.28515625 23.53515625 C-2.04710156 23.22285012 -2.04710156 23.22285012 -1 22 C-0.84285346 20.36743242 -0.74914586 18.72864662 -0.68359375 17.08984375 C-0.64169922 16.10048828 -0.59980469 15.11113281 -0.55664062 14.09179688 C-0.49766602 12.53041992 -0.49766602 12.53041992 -0.4375 10.9375 C-0.39431641 9.89271484 -0.35113281 8.84792969 -0.30664062 7.77148438 C-0.20018775 5.18113116 -0.0981724 2.59067814 0 0 Z " fill="#173A55" transform="translate(86,132)"/>
<path d="M0 0 C0.10194194 10.72655709 0.07419152 21.31563078 -1 32 C-3.475 31.01 -3.475 31.01 -6 30 C-5.34 29.67 -4.68 29.34 -4 29 C-3.34 29.33 -2.68 29.66 -2 30 C-2.08053241 25.54090702 -2.1934045 21.0832166 -2.3125 16.625 C-2.33505859 15.35398437 -2.35761719 14.08296875 -2.38085938 12.7734375 C-2.41630859 11.56171875 -2.45175781 10.35 -2.48828125 9.1015625 C-2.51446533 7.98088379 -2.54064941 6.86020508 -2.56762695 5.70556641 C-2.71031006 4.81272949 -2.85299316 3.91989258 -3 3 C-3.99 2.34 -4.98 1.68 -6 1 C-3 0 -3 0 0 0 Z " fill="#4C8A7A" transform="translate(163,68)"/>
<path d="M0 0 C0.33 0.99 0.66 1.98 1 3 C-2.29905462 7.94858192 -5.20362415 10.16956552 -11 12 C-14.4375 12.1875 -14.4375 12.1875 -17 12 C-17 11.34 -17 10.68 -17 10 C-16.35933594 9.78085938 -15.71867187 9.56171875 -15.05859375 9.3359375 C-8.90641937 7.08044585 -4.73458117 4.52872981 0 0 Z " fill="#9C7E41" transform="translate(118,88)"/>
<path d="M0 0 C0.99 0.33 1.98 0.66 3 1 C1.92250558 1.82022749 0.83770492 2.63086169 -0.25 3.4375 C-0.85328125 3.88996094 -1.4565625 4.34242187 -2.078125 4.80859375 C-6.35388372 7.45921653 -10.620094 7.13466257 -15.5625 7.125 C-16.23474609 7.12886719 -16.90699219 7.13273437 -17.59960938 7.13671875 C-20.67499752 7.13061073 -23.06026313 6.97991229 -26 6 C-26 5.34 -26 4.68 -26 4 C-24.783125 4.20625 -23.56625 4.4125 -22.3125 4.625 C-14.41286666 5.50273704 -6.39446621 4.82705909 0 0 Z " fill="#B6A073" transform="translate(116,99)"/>
<path d="M0 0 C3.37872681 3.37872681 3.18618403 6.67652246 3.25 11.25 C3.22580059 16.66461736 2.62704279 20.293215 0 25 C-0.33 25 -0.66 25 -1 25 C-0.9278125 23.865625 -0.855625 22.73125 -0.78125 21.5625 C-0.68737189 20.04167457 -0.59362913 18.52084078 -0.5 17 C-0.45230469 16.25621094 -0.40460938 15.51242188 -0.35546875 14.74609375 C-0.05564256 9.82037776 0.04486229 4.93485224 0 0 Z " fill="#C6B58D" transform="translate(125,68)"/>
<path d="M0 0 C2.93706932 5.1398713 2.6602535 10.358986 1.25 16 C0 18 0 18 -2.125 18.8125 C-2.74375 18.874375 -3.3625 18.93625 -4 19 C-3.505 17.93652344 -3.505 17.93652344 -3 16.8515625 C-1.92089382 13.77442378 -1.85726671 11.61326145 -2 8.375 C-2.22107969 3.33161954 -2.22107969 3.33161954 0 0 Z " fill="#A58749" transform="translate(120,71)"/>
<path d="M0 0 C2.7841781 0.08188759 4.53384796 0.60480788 6.66796875 2.4140625 C9.51438406 5.4835935 10.91125039 7.1864619 11.375 11.4375 C11.25125 12.283125 11.1275 13.12875 11 14 C8.92611246 12.13350122 7.59459189 10.37227132 6.0625 8 C4.17510469 5.25469772 2.65225729 3.89446949 0 2 C0 1.34 0 0.68 0 0 Z " fill="#9D7E41" transform="translate(109,61)"/>
<path d="M0 0 C-2.01592653 1.1337692 -4.03799747 2.25661641 -6.0625 3.375 C-7.18785156 4.00148438 -8.31320313 4.62796875 -9.47265625 5.2734375 C-14.37214897 7.67163881 -18.53444971 9 -24 9 C-23.67 8.01 -23.34 7.02 -23 6 C-22.195625 5.87625 -21.39125 5.7525 -20.5625 5.625 C-16.34141271 4.88445837 -12.17664983 3.95598874 -8 3 C-8 2.34 -8 1.68 -8 1 C-4.85571151 -0.9090323 -3.47925125 -1.04523725 0 0 Z " fill="#236E5C" transform="translate(131,119)"/>
<path d="M0 0 C0.66 0.33 1.32 0.66 2 1 C-1.96 5.29 -5.92 9.58 -10 14 C-10.99 13.67 -11.98 13.34 -13 13 C-8.71 8.71 -4.42 4.42 0 0 Z " fill="#2D7064" transform="translate(64,111)"/>
<path d="M0 0 C-0.33 1.32 -0.66 2.64 -1 4 C-0.34 4.33 0.32 4.66 1 5 C0.67 5.99 0.34 6.98 0 8 C-2.64 6.02 -5.28 4.04 -8 2 C-6.14210462 -1.71579076 -3.44525918 -1.06921837 0 0 Z " fill="#347566" transform="translate(140,77)"/>
<path d="M0 0 C1.06605469 0.07863281 2.13210937 0.15726562 3.23046875 0.23828125 C4.08253906 0.38652344 4.93460938 0.53476563 5.8125 0.6875 C6.1425 1.3475 6.4725 2.0075 6.8125 2.6875 C4.35387599 2.74133848 1.8964245 2.78109038 -0.5625 2.8125 C-1.61050781 2.83763672 -1.61050781 2.83763672 -2.6796875 2.86328125 C-4.51647486 2.88094267 -6.35351963 2.79053261 -8.1875 2.6875 C-8.8475 2.0275 -9.5075 1.3675 -10.1875 0.6875 C-6.6783758 -0.44255694 -3.65457065 -0.29824145 0 0 Z " fill="#155F4E" transform="translate(100.1875,125.3125)"/>
<path d="M0 0 C5.53846154 -0.36923077 5.53846154 -0.36923077 7.875 1.5 C8.24625 1.995 8.6175 2.49 9 3 C8.01 3.495 8.01 3.495 7 4 C4.375 3.0625 4.375 3.0625 2 2 C0.35 4.31 -1.3 6.62 -3 9 C-3.33 7.68 -3.66 6.36 -4 5 C-3.01 4.67 -2.02 4.34 -1 4 C-0.26676204 1.98491642 -0.26676204 1.98491642 0 0 Z " fill="#277965" transform="translate(149,93)"/>
<path d="M0 0 C1.09651823 3.41139003 0.94215473 6.20655581 0.5625 9.75 C0.40974609 11.22726563 0.40974609 11.22726563 0.25390625 12.734375 C0.12822266 13.85585937 0.12822266 13.85585937 0 15 C-0.99 14.67 -1.98 14.34 -3 14 C-3.34615998 8.34605369 -2.43425238 4.96993194 0 0 Z " fill="#EDE3CB" transform="translate(75,70)"/>
<path d="M0 0 C0.99 0.33 1.98 0.66 3 1 C-0.3 4.3 -3.6 7.6 -7 11 C-7.33 10.01 -7.66 9.02 -8 8 C-6.71034824 6.62437146 -5.37310707 5.29233607 -4 4 C-3.34 4 -2.68 4 -2 4 C-1.34 2.68 -0.68 1.36 0 0 Z " fill="#256D5C" transform="translate(139,107)"/>
<path d="M0 0 C0 3 0 3 -2.25 5.5625 C-6.25877763 9.11573472 -6.25877763 9.11573472 -9 10 C-10.34302277 9.70814606 -11.6789271 9.37901884 -13 9 C-12.31292969 8.60167969 -11.62585938 8.20335938 -10.91796875 7.79296875 C-10.01691406 7.26316406 -9.11585937 6.73335938 -8.1875 6.1875 C-7.29417969 5.66542969 -6.40085937 5.14335938 -5.48046875 4.60546875 C-3.33168013 3.21467801 -1.70638383 1.8877934 0 0 Z " fill="#2F7463" transform="translate(128,103)"/>
<path d="M0 0 C3.81684226 1.55500981 6.19195732 4.03595495 9 7 C4.98737662 7 3.23173231 5.26908865 0 3 C-0.66 2.67 -1.32 2.34 -2 2 C-1.34 1.34 -0.68 0.68 0 0 Z " fill="#2B7161" transform="translate(73,103)"/>
<path d="M0 0 C1.78409802 3.06246747 2.22880021 5.22079273 2.125 8.75 C2.10695313 9.54921875 2.08890625 10.3484375 2.0703125 11.171875 C2.03550781 12.07679687 2.03550781 12.07679687 2 13 C-1 11 -1 11 -1.58203125 9.16015625 C-1.65808594 8.46792969 -1.73414062 7.77570313 -1.8125 7.0625 C-1.90144531 6.37285156 -1.99039063 5.68320313 -2.08203125 4.97265625 C-2 3 -2 3 0 0 Z " fill="#AD904F" transform="translate(120,71)"/>
<path d="M0 0 C0 0.99 0 1.98 0 3 C-2.5 5.1875 -2.5 5.1875 -5 7 C-5.66 6.34 -6.32 5.68 -7 5 C-4.63707344 2.47411298 -3.33537489 1.11179163 0 0 Z " fill="#1B705F" transform="translate(73,105)"/>
<path d="M0 0 C5.94 1.485 5.94 1.485 12 3 C7.36533108 4.15866723 4.66739961 3.70010994 0 3 C0 2.01 0 1.02 0 0 Z " fill="#DDF4EC" transform="translate(90,127)"/>
<path d="M0 0 C1.4391134 0.28359887 2.87625518 0.57721399 4.3125 0.875 C5.11300781 1.03742188 5.91351563 1.19984375 6.73828125 1.3671875 C9 2 9 2 12 4 C8.53896434 5.11974683 7.19556417 5.07897784 3.75 3.6875 C1 2 1 2 0 0 Z " fill="#2D7463" transform="translate(80,122)"/>
<path d="M0 0 C0.33 0.99 0.66 1.98 1 3 C-1.31 4.98 -3.62 6.96 -6 9 C-6.66 8.67 -7.32 8.34 -8 8 C-5.36 5.36 -2.72 2.72 0 0 Z " fill="#C9EAE2" transform="translate(139,110)"/>
<path d="M0 0 C2.475 0.99 2.475 0.99 5 2 C6.3125 5.625 6.3125 5.625 7 9 C6.34 9.66 5.68 10.32 5 11 C3.35 7.37 1.7 3.74 0 0 Z " fill="#1D3E58" transform="translate(130,57)"/>
<path d="M0 0 C0.66 0 1.32 0 2 0 C6.09326923 6.45 6.09326923 6.45 5.62109375 9.234375 C5.41613281 9.81703125 5.21117188 10.3996875 5 11 C4.16151196 9.54462432 3.32936066 8.08559627 2.5 6.625 C1.80390625 5.40683594 1.80390625 5.40683594 1.09375 4.1640625 C0 2 0 2 0 0 Z " fill="#BEAA7C" transform="translate(76,87)"/>
<path d="M0 0 C1.32 0.66 2.64 1.32 4 2 C2.35 3.32 0.7 4.64 -1 6 C-1.625 4.125 -1.625 4.125 -2 2 C-1.34 1.34 -0.68 0.68 0 0 Z " fill="#D0EFE8" transform="translate(151,94)"/>
<path d="M0 0 C0.33 0.66 0.66 1.32 1 2 C-0.65 4.31 -2.3 6.62 -4 9 C-4.99 8.67 -5.98 8.34 -7 8 C-4.69 5.36 -2.38 2.72 0 0 Z " fill="#F1E6CB" transform="translate(124,93)"/>
<path d="M0 0 C0.928125 0.515625 1.85625 1.03125 2.8125 1.5625 C2.1525 2.2225 1.4925 2.8825 0.8125 3.5625 C0.049375 3.2325 -0.71375 2.9025 -1.5 2.5625 C-4.17819135 1.38813314 -4.17819135 1.38813314 -7.1875 1.5625 C-5.33194656 -2.14860689 -3.45119187 -1.55641986 0 0 Z " fill="#21685A" transform="translate(78.1875,119.4375)"/>
<path d="M0 0 C0.99 0.33 1.98 0.66 3 1 C0.03 3.475 0.03 3.475 -3 6 C-2.625 3.5625 -2.625 3.5625 -2 1 C-1.34 0.67 -0.68 0.34 0 0 Z " fill="#317166" transform="translate(69,122)"/>
<path d="M0 0 C0.66 0.33 1.32 0.66 2 1 C0.63016497 4.16115776 0.0109362 4.9927092 -3 7 C-2.25 2.25 -2.25 2.25 0 0 Z " fill="#2C4E67" transform="translate(60,105)"/>
<path d="M0 0 C0.66 0.33 1.32 0.66 2 1 C0.3125 3.0625 0.3125 3.0625 -2 5 C-4.75 4.75 -4.75 4.75 -7 4 C-6.1028125 3.566875 -6.1028125 3.566875 -5.1875 3.125 C-2.80672208 1.95257974 -2.80672208 1.95257974 0 0 Z " fill="#F4EBD5" transform="translate(115,102)"/>
<path d="M0 0 C1.5 1.125 1.5 1.125 3 3 C3.1875 6.1875 3.1875 6.1875 3 9 C1.5 7.875 1.5 7.875 0 6 C-0.1875 2.8125 -0.1875 2.8125 0 0 Z " fill="#A38447" transform="translate(117,66)"/>
<path d="M0 0 C2.31 0.33 4.62 0.66 7 1 C6.01 1.495 6.01 1.495 5 2 C5 2.66 5 3.32 5 4 C2.525 3.01 2.525 3.01 0 2 C0 1.34 0 0.68 0 0 Z " fill="#AA8C4E" transform="translate(104,59)"/>
<path d="M0 0 C6.75 0.875 6.75 0.875 9 2 C8.67 2.99 8.34 3.98 8 5 C5.36 3.68 2.72 2.36 0 1 C0 0.67 0 0.34 0 0 Z " fill="#213F58" transform="translate(114,45)"/>
</svg>
